<?xml version="1.0" standalone="no"?>
<!DOCTYPE svg PUBLIC "-//W3C//DTD SVG 20010904//EN"
 "http://www.w3.org/TR/2001/REC-SVG-20010904/DTD/svg10.dtd">
<svg version="1.0" xmlns="http://www.w3.org/2000/svg"
 width="512.000000pt" height="512.000000pt" viewBox="0 0 512.000000 512.000000"
 preserveAspectRatio="xMidYMid meet">
<metadata>
Created by potrace 1.14, written by Peter Selinger 2001-2017
</metadata>
<g transform="translate(0.000000,512.000000) scale(0.100000,-0.100000)"
fill="#000000" stroke="none">
<path d="M2365 5104 c-44 -7 -96 -18 -115 -23 -19 -5 -58 -16 -86 -24 -28 -8
-94 -35 -146 -60 -217 -102 -393 -254 -527 -454 -23 -35 -49 -63 -59 -63 -317
-10 -610 -125 -838 -332 -77 -70 -187 -200 -222 -263 -9 -16 -20 -32 -23 -35
-26 -20 -111 -230 -138 -340 -28 -109 -33 -151 -36 -290 -4 -210 37 -398 130
-588 l34 -71 -39 -83 c-37 -80 -83 -207 -94 -258 -3 -14 -7 -36 -10 -49 -28
-126 -28 -357 -1 -496 91 -463 436 -842 895 -983 81 -25 233 -49 327 -51 28
-1 38 -9 74 -63 198 -297 492 -490 848 -558 141 -26 372 -20 507 14 234 58
422 158 585 311 87 81 229 258 229 285 0 6 21 10 48 10 72 0 227 26 324 54
224 66 449 209 593 380 28 32 56 64 63 71 24 26 112 176 143 242 80 175 118
360 114 553 -2 69 -6 145 -10 170 -19 122 -89 331 -141 419 -16 26 -15 31 25
113 88 186 129 368 126 568 -2 146 -8 193 -41 317 -75 286 -243 529 -492 715
-94 70 -308 171 -412 194 -87 20 -110 24 -155 30 -27 4 -57 8 -65 10 -8 1 -36
3 -62 3 -47 1 -48 2 -89 64 -193 287 -490 487 -823 553 -107 21 -338 25 -441
8z"/>
</g>
</svg>
